<?xml version="1.0" standalone="no"?>
<!DOCTYPE svg PUBLIC "-//W3C//DTD SVG 20010904//EN"
 "http://www.w3.org/TR/2001/REC-SVG-20010904/DTD/svg10.dtd">
<svg version="1.0" xmlns="http://www.w3.org/2000/svg"
 width="512.000000pt" height="512.000000pt" viewBox="0 0 512.000000 512.000000"
 preserveAspectRatio="xMidYMid meet">

<g transform="translate(0.000000,512.000000) scale(0.100000,-0.100000)"
fill="#fff" stroke="none">
<path d="M2517 5106 c-30 -23 -37 -74 -37 -273 l0 -193 -409 0 c-225 0 -417
-3 -426 -6 -38 -15 -45 -55 -45 -269 l0 -205 -198 0 -199 0 -78 308 c-84 336
-108 394 -182 463 -24 22 -74 55 -111 72 l-67 32 -301 0 -301 0 -49 -30 c-30
-19 -60 -49 -79 -79 -26 -43 -30 -59 -30 -121 0 -62 4 -78 30 -121 19 -30 49
-60 79 -79 l49 -30 226 -5 226 -5 426 -1670 c391 -1530 430 -1677 469 -1753
75 -148 214 -262 380 -314 l75 -23 1490 0 c1433 0 1491 1 1527 19 81 40 139
130 138 215 -1 86 -56 171 -134 207 l-51 24 -1445 0 -1446 0 -44 23 c-25 12
-54 36 -66 54 -23 35 -101 329 -90 340 6 7 212 32 2021 252 501 61 939 116
974 121 118 20 207 86 255 189 21 46 21 50 24 954 l2 907 -24 25 -25 25 -256
0 -255 0 0 455 0 456 -25 24 -24 25 -988 0 c-816 -1 -991 -3 -1006 -14z m1893
-541 l0 -405 -55 0 c-46 0 -60 -4 -80 -25 -31 -30 -32 -71 -3 -102 l21 -23
339 0 338 0 0 -835 c0 -813 -1 -837 -20 -875 -19 -37 -55 -70 -93 -83 -11 -4
-148 -23 -305 -42 -158 -19 -579 -71 -937 -114 -1530 -188 -1817 -222 -1819
-219 -1 2 -103 397 -225 878 -123 481 -227 883 -232 892 -21 39 -92 36 -122
-4 l-20 -27 278 -1088 c152 -598 286 -1116 296 -1150 25 -78 89 -152 167 -190
l57 -28 1470 -5 c809 -3 1471 -6 1472 -8 12 -12 33 -65 33 -82 0 -12 -13 -35
-29 -51 l-29 -29 -1439 0 c-1562 0 -1512 -1 -1624 56 -67 34 -168 130 -202
192 -14 26 -34 79 -46 117 -11 39 -207 804 -436 1700 -228 897 -420 1643 -427
1658 -6 15 -19 32 -29 37 -10 6 -121 10 -253 10 -249 0 -276 4 -295 47 -18 39
-13 63 19 94 l30 30 268 -3 269 -3 49 -30 c89 -56 92 -64 219 -560 122 -479
124 -485 183 -485 34 0 72 37 72 69 0 14 -7 50 -14 79 l-14 52 1394 0 1395 0
24 25 c14 13 25 31 25 39 0 28 -22 64 -47 75 -16 8 -164 11 -468 11 l-445 0 0
199 c0 112 -5 211 -10 228 -17 48 -41 53 -265 53 l-205 0 0 165 0 165 885 0
885 0 0 -405z m-1440 -240 l0 -165 -610 0 -610 0 0 165 0 165 610 0 610 0 0
-165z"/>
<path d="M2033 3656 l-28 -24 0 -690 c0 -664 1 -691 19 -711 13 -14 31 -21 57
-21 73 0 69 -39 69 736 l0 693 -26 20 c-35 27 -57 26 -91 -3z"/>
<path d="M2513 3656 l-28 -24 0 -660 c0 -635 1 -661 19 -681 26 -29 86 -29
112 0 18 20 19 46 19 681 l0 660 -28 24 c-15 13 -37 24 -47 24 -10 0 -32 -11
-47 -24z"/>
<path d="M2996 3659 l-26 -20 0 -639 0 -639 26 -20 c35 -27 57 -26 91 3 l28
24 0 632 0 632 -28 24 c-34 29 -56 30 -91 3z"/>
<path d="M3500 3673 c-8 -3 -23 -12 -32 -21 -17 -14 -18 -56 -18 -622 0 -565
1 -608 18 -623 9 -8 29 -19 44 -22 22 -6 33 -1 58 23 l30 30 0 592 0 592 -29
29 c-29 29 -42 33 -71 22z"/>
<path d="M3973 3670 c-12 -5 -26 -18 -32 -29 -15 -27 -15 -1135 0 -1162 25
-48 105 -44 128 7 15 35 16 1113 0 1147 -6 14 -22 30 -36 36 -28 13 -30 13
-60 1z"/>
<path d="M4453 3670 c-12 -5 -26 -18 -32 -29 -8 -13 -11 -196 -11 -559 l0
-539 23 -21 c31 -29 72 -28 102 3 l25 24 0 528 c0 290 -3 538 -6 551 -4 12
-19 29 -35 37 -32 17 -35 17 -66 5z"/>
<path d="M1493 612 c-78 -28 -137 -81 -175 -159 -129 -263 139 -542 408 -424
109 48 184 163 184 282 0 88 -22 148 -77 209 -88 98 -222 134 -340 92z m195
-159 c47 -35 72 -81 72 -135 0 -59 -19 -98 -63 -132 -66 -50 -144 -46 -208 11
-84 76 -72 199 26 259 33 20 50 24 93 21 32 -2 63 -12 80 -24z"/>
<path d="M4690 608 c-74 -29 -150 -105 -178 -181 -58 -153 10 -322 156 -394
48 -24 70 -28 137 -28 67 0 89 4 137 28 65 32 121 90 151 156 34 72 31 188 -6
263 -72 147 -244 214 -397 156z m210 -158 c36 -26 69 -90 70 -135 0 -54 -40
-117 -90 -142 -54 -28 -92 -29 -146 -4 -62 28 -89 73 -89 147 0 50 5 66 27 96
15 19 42 42 60 52 46 23 125 17 168 -14z"/>
</g>
</svg>
